<svg width="32" height="32" viewBox="0 0 32 32" fill="none" xmlns="http://www.w3.org/2000/svg">
<path d="M4.94667 7.2H25.232C27.0693 7.2 28.396 8.89333 27.892 10.5973L25.6867 18.064C25.3467 19.2107 24.2613 20 23.0267 20H10.816C9.58 20 8.49333 19.2093 8.15467 18.064L4.94667 7.2ZM4.94667 7.2L4 4M22 28C22.5304 28 23.0391 27.7893 23.4142 27.4142C23.7893 27.0391 24 26.5304 24 26C24 25.4696 23.7893 24.9609 23.4142 24.5858C23.0391 24.2107 22.5304 24 22 24C21.4696 24 20.9609 24.2107 20.5858 24.5858C20.2107 24.9609 20 25.4696 20 26C20 26.5304 20.2107 27.0391 20.5858 27.4142C20.9609 27.7893 21.4696 28 22 28ZM11.3333 28C11.8638 28 12.3725 27.7893 12.7475 27.4142C13.1226 27.0391 13.3333 26.5304 13.3333 26C13.3333 25.4696 13.1226 24.9609 12.7475 24.5858C12.3725 24.2107 11.8638 24 11.3333 24C10.8029 24 10.2942 24.2107 9.91912 24.5858C9.54405 24.9609 9.33333 25.4696 9.33333 26C9.33333 26.5304 9.54405 27.0391 9.91912 27.4142C10.2942 27.7893 10.8029 28 11.3333 28Z" stroke="#F1F1F1" stroke-width="1.5" stroke-linecap="round" stroke-linejoin="round"/>
</svg>
