<svg width="14" height="14" viewBox="0 0 14 14" fill="none" xmlns="http://www.w3.org/2000/svg">
<path d="M4.43283 11.8785H2.45565C2.4401 11.8792 2.42451 11.8789 2.40899 11.8776C2.38976 11.875 2.37931 11.8651 2.39564 11.8469C2.68432 11.5267 2.77355 11.1304 2.82628 10.7201C2.84486 10.566 2.85371 10.4109 2.85279 10.2556C2.85372 9.68312 2.85279 9.11071 2.85475 8.5383C2.85475 8.47996 2.84075 8.46242 2.78111 8.46363C2.61703 8.46783 2.45267 8.46484 2.28849 8.46484C1.91227 8.46484 1.66316 8.26884 1.49703 7.94834C1.38503 7.73143 1.38503 7.49567 1.38783 7.25991C1.38783 7.24946 1.38578 7.23574 1.39931 7.23191C1.41471 7.22743 1.42264 7.24124 1.43179 7.25058C1.51579 7.32926 1.60371 7.40196 1.71338 7.44322C1.7878 7.47217 1.86686 7.48738 1.94671 7.48811C2.22671 7.48811 2.50596 7.48699 2.78549 7.48932C2.8372 7.48979 2.85456 7.47719 2.854 7.42278C2.85139 7.14328 2.85139 6.86371 2.854 6.58408C2.85447 6.52967 2.84075 6.51128 2.78391 6.5125C2.6132 6.51604 2.44221 6.5138 2.27141 6.51371C1.96677 6.51371 1.73942 6.37156 1.57142 6.12638C1.44644 5.9441 1.39063 5.73932 1.38942 5.51906C1.38942 5.45914 1.38783 5.39922 1.38942 5.33939C1.38942 5.31923 1.37504 5.28862 1.40136 5.28106C1.42059 5.27555 1.43692 5.30187 1.45223 5.31699C1.59671 5.45979 1.76657 5.53884 1.97359 5.53642C2.24649 5.53324 2.51949 5.53474 2.7924 5.53642C2.83748 5.53642 2.85391 5.52578 2.85372 5.47734C2.85083 4.86722 2.85633 4.257 2.84663 3.64698C2.84 3.23024 2.76879 2.8235 2.58529 2.44298C2.53769 2.34264 2.47469 2.25248 2.40731 2.16531C2.39965 2.15532 2.38155 2.14935 2.38687 2.13488C2.39349 2.11706 2.41263 2.12182 2.42784 2.12182H2.50773C3.70156 2.12182 4.89539 2.11902 6.08912 2.12443C6.72724 2.12732 7.35519 2.21291 7.96895 2.39407C8.60361 2.58148 9.18228 2.87595 9.68395 3.31004C10.0605 3.63568 10.3587 4.02516 10.5893 4.46626C10.7558 4.78621 10.8831 5.1251 10.9684 5.47556C10.9793 5.51999 10.9973 5.5367 11.0447 5.53614C11.2687 5.5339 11.4927 5.5353 11.7167 5.53614C12.0964 5.53698 12.3427 5.73848 12.5061 6.0631C12.6124 6.27431 12.6153 6.50242 12.6131 6.73118C12.6131 6.74406 12.6153 6.76048 12.6003 6.76599C12.5833 6.77224 12.5723 6.75834 12.5615 6.74732C12.4849 6.66958 12.3992 6.60527 12.2974 6.56318C12.2215 6.53138 12.1402 6.5147 12.058 6.51408C11.7717 6.51296 11.4855 6.51483 11.1993 6.51268C11.1475 6.51268 11.1308 6.52416 11.134 6.57932C11.1534 6.8582 11.1536 7.13808 11.1346 7.41699C11.1301 7.48092 11.1514 7.49044 11.2073 7.48932C11.367 7.48606 11.5272 7.49474 11.6865 7.48708C12.1176 7.46618 12.4406 7.77371 12.5585 8.14723C12.6145 8.32596 12.6127 8.50908 12.6112 8.69276C12.6112 8.70331 12.6159 8.71694 12.6018 8.72076C12.5839 8.7258 12.5738 8.70975 12.5631 8.69976C12.4815 8.62108 12.3951 8.55043 12.287 8.50974C12.217 8.48179 12.1426 8.46676 12.0672 8.4654C11.7321 8.46475 11.3971 8.46596 11.062 8.46391C11.0097 8.46391 10.9873 8.47567 10.9732 8.53204C10.8309 9.11248 10.5966 9.65102 10.2345 10.1305C9.87248 10.6099 9.4186 10.9807 8.88641 11.2562C8.2356 11.5929 7.53728 11.7612 6.81255 11.8361C6.48588 11.8699 6.15819 11.8803 5.82993 11.8798C5.36389 11.8793 4.89791 11.8793 4.43199 11.8798L4.43283 11.8785ZM6.81731 5.53558V5.53464C7.62912 5.53464 8.44093 5.53508 9.25275 5.53595C9.31043 5.53595 9.32471 5.52195 9.31397 5.46539C9.21859 4.9626 9.07271 4.47839 8.80857 4.03487C8.53221 3.57072 8.15459 3.21652 7.66991 2.97871C7.17197 2.73464 6.63811 2.63879 6.08968 2.61882C5.52445 2.5981 4.95867 2.61518 4.39307 2.60948C4.33044 2.60883 4.31644 2.62712 4.31663 2.68723C4.31849 3.6121 4.31849 4.53697 4.31663 5.46184C4.31663 5.52718 4.33753 5.53698 4.39531 5.53651C5.20258 5.53496 6.00991 5.53464 6.81731 5.53558ZM6.81917 8.46531C6.00935 8.46531 5.19953 8.46481 4.38971 8.46382C4.33016 8.46382 4.31663 8.47968 4.31672 8.53783C4.31868 9.42748 4.31784 10.317 4.31877 11.2072C4.31877 11.2661 4.29227 11.3424 4.33137 11.3795C4.37048 11.4165 4.4458 11.3912 4.50497 11.3904C5.06815 11.382 5.63179 11.4135 6.19431 11.3692C6.67964 11.3309 7.1492 11.2309 7.59225 11.0239C8.06265 10.8037 8.44439 10.48 8.73288 10.0466C9.04088 9.58363 9.20692 9.06712 9.31211 8.52691C9.32237 8.47399 9.30567 8.46531 9.25517 8.4654C8.44324 8.46634 7.63124 8.46631 6.81917 8.46531ZM6.87032 7.48848V7.48652C7.69772 7.48652 8.52512 7.48568 9.35252 7.4883C9.41207 7.4883 9.42933 7.47168 9.43055 7.41634C9.43677 7.1369 9.43677 6.85752 9.43055 6.5782C9.42933 6.52715 9.41412 6.51128 9.36083 6.51138C7.70603 6.51306 6.05123 6.51306 4.39643 6.51138C4.32997 6.51138 4.31616 6.53238 4.31691 6.59426C4.32008 6.86259 4.31849 7.13102 4.3184 7.39935C4.3184 7.48839 4.31793 7.4883 4.40856 7.4883L6.87032 7.48848Z" fill="#121212"/>
</svg>
