<svg width="51" height="51" viewBox="0 0 51 51" fill="none" xmlns="http://www.w3.org/2000/svg">
<path d="M25.4941 50.2008C39.298 50.2008 50.4883 39.0749 50.4883 25.3504C50.4883 11.6259 39.298 0.5 25.4941 0.5C11.6903 0.5 0.5 11.6259 0.5 25.3504C0.5 39.0749 11.6903 50.2008 25.4941 50.2008Z" stroke="#B7B7B7"/>
<path d="M28.6081 18.2067H30.4881V15.0267C29.5779 14.9321 28.6633 14.8854 27.7481 14.8867C25.0281 14.8867 23.1681 16.5467 23.1681 19.5867V22.2067H20.0981V25.7667H23.1681V34.8867H26.8481V25.7667H29.9081L30.3681 22.2067H26.8481V19.9367C26.8481 18.8867 27.1281 18.2067 28.6081 18.2067Z" fill="#BFF9FF"/>
</svg>
