<svg width="51" height="51" viewBox="0 0 51 51" fill="none" xmlns="http://www.w3.org/2000/svg">
<path d="M25.4941 50.2008C39.298 50.2008 50.4883 39.0749 50.4883 25.3504C50.4883 11.6259 39.298 0.5 25.4941 0.5C11.6903 0.5 0.5 11.6259 0.5 25.3504C0.5 39.0749 11.6903 50.2008 25.4941 50.2008Z" stroke="#B7B7B7"/>
<path d="M30.8283 18.6455C30.5909 18.6455 30.3589 18.7159 30.1616 18.8478C29.9643 18.9796 29.8105 19.1671 29.7196 19.3863C29.6288 19.6056 29.605 19.8469 29.6513 20.0797C29.6976 20.3124 29.8119 20.5263 29.9798 20.6941C30.1476 20.8619 30.3614 20.9762 30.5942 21.0225C30.827 21.0688 31.0682 21.045 31.2875 20.9542C31.5068 20.8634 31.6942 20.7096 31.826 20.5122C31.9579 20.3149 32.0283 20.0829 32.0283 19.8455C32.0283 19.5273 31.9019 19.2221 31.6768 18.997C31.4518 18.772 31.1465 18.6455 30.8283 18.6455ZM35.4283 21.0655C35.4088 20.2358 35.2534 19.4149 34.9683 18.6355C34.714 17.9687 34.3183 17.3648 33.8083 16.8655C33.3131 16.353 32.7078 15.9597 32.0383 15.7155C31.2609 15.4217 30.4391 15.2628 29.6083 15.2455C28.5483 15.1855 28.2083 15.1855 25.4883 15.1855C22.7683 15.1855 22.4283 15.1855 21.3683 15.2455C20.5374 15.2628 19.7156 15.4217 18.9383 15.7155C18.27 15.9622 17.6652 16.3551 17.1683 16.8655C16.6557 17.3607 16.2625 17.966 16.0183 18.6355C15.7244 19.4129 15.5655 20.2347 15.5483 21.0655C15.4883 22.1255 15.4883 22.4655 15.4883 25.1855C15.4883 27.9055 15.4883 28.2455 15.5483 29.3055C15.5655 30.1364 15.7244 30.9582 16.0183 31.7355C16.2625 32.4051 16.6557 33.0104 17.1683 33.5055C17.6652 34.016 18.27 34.4089 18.9383 34.6555C19.7156 34.9494 20.5374 35.1083 21.3683 35.1255C22.4283 35.1855 22.7683 35.1855 25.4883 35.1855C28.2083 35.1855 28.5483 35.1855 29.6083 35.1255C30.4391 35.1083 31.2609 34.9494 32.0383 34.6555C32.7078 34.4114 33.3131 34.0181 33.8083 33.5055C34.3205 33.0081 34.7166 32.4037 34.9683 31.7355C35.2534 30.9561 35.4088 30.1352 35.4283 29.3055C35.4283 28.2455 35.4883 27.9055 35.4883 25.1855C35.4883 22.4655 35.4883 22.1255 35.4283 21.0655ZM33.6283 29.1855C33.621 29.8203 33.506 30.4493 33.2883 31.0455C33.1286 31.4807 32.8722 31.874 32.5383 32.1955C32.2139 32.5261 31.8215 32.782 31.3883 32.9455C30.792 33.1633 30.1631 33.2783 29.5283 33.2855C28.5283 33.3355 28.1583 33.3455 25.5283 33.3455C22.8983 33.3455 22.5283 33.3455 21.5283 33.2855C20.8692 33.2979 20.2129 33.1964 19.5883 32.9855C19.1741 32.8136 18.7996 32.5583 18.4883 32.2355C18.1564 31.9143 17.9031 31.5207 17.7483 31.0855C17.5041 30.4807 17.3687 29.8375 17.3483 29.1855C17.3483 28.1855 17.2883 27.8155 17.2883 25.1855C17.2883 22.5555 17.2883 22.1855 17.3483 21.1855C17.3528 20.5366 17.4712 19.8935 17.6983 19.2855C17.8743 18.8635 18.1445 18.4872 18.4883 18.1855C18.7921 17.8417 19.1676 17.5686 19.5883 17.3855C20.1978 17.1656 20.8403 17.0506 21.4883 17.0455C22.4883 17.0455 22.8583 16.9855 25.4883 16.9855C28.1183 16.9855 28.4883 16.9855 29.4883 17.0455C30.1231 17.0528 30.752 17.1678 31.3483 17.3855C31.8027 17.5542 32.2106 17.8284 32.5383 18.1855C32.866 18.4927 33.122 18.8683 33.2883 19.2855C33.5105 19.8945 33.6256 20.5373 33.6283 21.1855C33.6783 22.1855 33.6883 22.5555 33.6883 25.1855C33.6883 27.8155 33.6783 28.1855 33.6283 29.1855ZM25.4883 20.0555C24.4741 20.0575 23.4832 20.3601 22.6409 20.925C21.7986 21.4899 21.1427 22.2917 20.7559 23.2293C20.3692 24.1669 20.269 25.198 20.4681 26.1925C20.6671 27.1869 21.1565 28.1001 21.8744 28.8165C22.5922 29.533 23.5063 30.0206 24.5011 30.2177C25.496 30.4148 26.5269 30.3127 27.4637 29.9241C28.4006 29.5355 29.2012 28.878 29.7644 28.0346C30.3277 27.1912 30.6283 26.1997 30.6283 25.1855C30.6296 24.5107 30.4975 23.8422 30.2395 23.2185C29.9816 22.5949 29.6028 22.0284 29.1252 21.5516C28.6475 21.0748 28.0802 20.6972 27.4561 20.4405C26.8319 20.1837 26.1632 20.0529 25.4883 20.0555ZM25.4883 28.5155C24.8297 28.5155 24.1858 28.3202 23.6382 27.9543C23.0906 27.5884 22.6638 27.0684 22.4118 26.4599C22.1597 25.8514 22.0938 25.1819 22.2223 24.5359C22.3508 23.8899 22.6679 23.2966 23.1336 22.8309C23.5993 22.3652 24.1927 22.048 24.8386 21.9195C25.4846 21.791 26.1541 21.857 26.7626 22.109C27.3711 22.3611 27.8912 22.7879 28.2571 23.3355C28.623 23.8831 28.8183 24.5269 28.8183 25.1855C28.8183 25.6228 28.7321 26.0559 28.5648 26.4599C28.3975 26.8639 28.1522 27.231 27.8429 27.5402C27.5337 27.8494 27.1666 28.0947 26.7626 28.2621C26.3586 28.4294 25.9256 28.5155 25.4883 28.5155Z" fill="#BFF9FF"/>
</svg>
