<svg width="32" height="32" viewBox="0 0 32 32" fill="none" xmlns="http://www.w3.org/2000/svg">
<path d="M15.9998 16.3334C15.0109 16.3334 14.0442 16.0401 13.222 15.4907C12.3997 14.9413 11.7589 14.1604 11.3804 13.2468C11.002 12.3332 10.903 11.3278 11.0959 10.3579C11.2888 9.38802 11.765 8.4971 12.4643 7.79784C13.1636 7.09858 14.0545 6.62238 15.0244 6.42945C15.9943 6.23652 16.9996 6.33554 17.9133 6.71398C18.8269 7.09242 19.6078 7.73328 20.1572 8.55553C20.7066 9.37777 20.9998 10.3445 20.9998 11.3334C20.9998 12.6595 20.4731 13.9312 19.5354 14.8689C18.5977 15.8066 17.3259 16.3334 15.9998 16.3334ZM15.9998 8.33338C15.4065 8.33338 14.8265 8.50932 14.3331 8.83897C13.8398 9.16861 13.4553 9.63715 13.2282 10.1853C13.0011 10.7335 12.9417 11.3367 13.0575 11.9186C13.1732 12.5006 13.459 13.0351 13.8785 13.4547C14.2981 13.8743 14.8326 14.16 15.4146 14.2757C15.9965 14.3915 16.5997 14.3321 17.1479 14.105C17.6961 13.878 18.1646 13.4934 18.4942 13.0001C18.8239 12.5067 18.9998 11.9267 18.9998 11.3334C18.9998 10.5377 18.6838 9.77467 18.1212 9.21206C17.5585 8.64945 16.7955 8.33338 15.9998 8.33338ZM25.3332 25.6667C25.069 25.6633 24.8167 25.5568 24.6299 25.37C24.4431 25.1832 24.3366 24.9309 24.3332 24.6667C24.3332 22.0667 22.9198 20.3334 15.9998 20.3334C9.07984 20.3334 7.6665 22.0667 7.6665 24.6667C7.6665 24.9319 7.56115 25.1863 7.37361 25.3738C7.18607 25.5614 6.93172 25.6667 6.6665 25.6667C6.40129 25.6667 6.14693 25.5614 5.9594 25.3738C5.77186 25.1863 5.6665 24.9319 5.6665 24.6667C5.6665 18.3334 12.9065 18.3334 15.9998 18.3334C19.0932 18.3334 26.3332 18.3334 26.3332 24.6667C26.3297 24.9309 26.2233 25.1832 26.0365 25.37C25.8497 25.5568 25.5973 25.6633 25.3332 25.6667Z" fill="#F1F1F1"/>
</svg>
