<svg width="51" height="51" viewBox="0 0 51 51" fill="none" xmlns="http://www.w3.org/2000/svg">
<path d="M25.4941 50.2008C39.298 50.2008 50.4883 39.0749 50.4883 25.3504C50.4883 11.6259 39.298 0.5 25.4941 0.5C11.6903 0.5 0.5 11.6259 0.5 25.3504C0.5 39.0749 11.6903 50.2008 25.4941 50.2008Z" stroke="#B7B7B7"/>
<path d="M30.0883 27.484C29.8883 27.384 28.5883 26.784 28.3883 26.684C28.1883 26.584 27.9883 26.584 27.7883 26.784C27.5883 26.984 27.1883 27.584 26.9883 27.784C26.8883 27.984 26.6883 27.984 26.4883 27.884C25.7883 27.584 25.0883 27.184 24.4883 26.684C23.9883 26.184 23.4883 25.584 23.0883 24.984C22.9883 24.784 23.0883 24.584 23.1883 24.484C23.2883 24.384 23.3883 24.184 23.5883 24.084C23.6883 23.984 23.7883 23.784 23.7883 23.684C23.8883 23.584 23.8883 23.384 23.7883 23.284C23.6883 23.184 23.1883 21.984 22.9883 21.484C22.8883 20.784 22.6883 20.784 22.4883 20.784H21.9883C21.7883 20.784 21.4883 20.984 21.3883 21.084C20.7883 21.684 20.4883 22.384 20.4883 23.184C20.5883 24.084 20.8883 24.984 21.4883 25.784C22.5883 27.384 23.9883 28.684 25.6883 29.484C26.1883 29.684 26.5883 29.884 27.0883 29.984C27.5883 30.184 28.0883 30.184 28.6883 30.084C29.3883 29.984 29.9883 29.484 30.3883 28.884C30.5883 28.484 30.5883 28.084 30.4883 27.684L30.0883 27.484ZM32.5883 18.384C28.6883 14.484 22.3883 14.484 18.4883 18.384C15.2883 21.584 14.6883 26.484 16.8883 30.384L15.4883 35.484L20.7883 34.084C22.2883 34.884 23.8883 35.284 25.4883 35.284C30.9883 35.284 35.3883 30.884 35.3883 25.384C35.4883 22.784 34.3883 20.284 32.5883 18.384ZM29.8883 32.384C28.5883 33.184 27.0883 33.684 25.4883 33.684C23.9883 33.684 22.5883 33.284 21.2883 32.584L20.9883 32.384L17.8883 33.184L18.6883 30.184L18.4883 29.884C16.0883 25.884 17.2883 20.884 21.1883 18.384C25.0883 15.884 30.0883 17.184 32.4883 20.984C34.8883 24.884 33.7883 29.984 29.8883 32.384Z" fill="#BFF9FF"/>
</svg>
